<svg width="120" height="121" viewBox="0 0 120 121" fill="none" xmlns="http://www.w3.org/2000/svg">
<g clip-path="url(#clip0_311_931)">
<path d="M61.2 0.879395H0V60.8794H61.2V0.879395Z" fill="#F1F1F1"/>
<path d="M107.101 34.7075C103.829 32.7405 99.5986 33.7568 97.5704 36.9914C97.5377 37.0241 97.5159 37.0679 97.4941 37.1006C95.5095 40.4226 96.5781 44.7281 99.893 46.7169C100.384 47.0119 100.896 47.2414 101.42 47.4053L96.8617 55L89.2941 50.4432C89.6757 50.0498 90.0247 49.6127 90.3191 49.121C92.3037 45.799 91.2459 41.4935 87.9201 39.4938C84.6161 37.505 80.3089 38.5759 78.3244 41.8869C78.0299 42.3787 77.801 42.8923 77.6374 43.4168L70.0589 38.849L75.3693 30.0086C75.5547 29.7027 75.5656 29.3311 75.402 29.0142C75.2384 28.6973 74.9222 28.4897 74.5733 28.4679C73.8318 28.4132 73.0794 28.1837 72.4033 27.7685C70.0589 26.3588 69.2956 23.31 70.7132 20.9606C72.1307 18.6112 75.173 17.8463 77.5174 19.2559C78.2044 19.6712 78.7496 20.2285 79.1531 20.8513C79.3385 21.1573 79.6765 21.3321 80.0254 21.3321C80.3853 21.3321 80.7124 21.1355 80.8869 20.8404L86.1973 12L94.9534 17.278C95.2478 17.4529 95.6186 17.4747 95.9348 17.3217C96.251 17.1687 96.4582 16.8628 96.4909 16.5131C96.5672 15.8137 96.7853 15.1362 97.167 14.5024C98.5736 12.153 101.616 11.3881 103.96 12.7977C106.305 14.2183 107.068 17.2671 105.661 19.6165C105.28 20.2503 104.778 20.7748 104.2 21.1573C103.906 21.354 103.742 21.6818 103.753 22.0315C103.753 22.3812 103.949 22.6981 104.244 22.8839L113 28.1619L108.442 35.7565C108.049 35.3741 107.613 35.0244 107.123 34.7294L107.101 34.7075Z" fill="white" stroke="#D9D9D9" stroke-width="1.87" stroke-linejoin="round"/>
<path d="M45.0106 89.9566L48.1649 101.241L38.3554 104.052C38.0194 104.15 37.7484 104.414 37.6508 104.765C37.5533 105.105 37.6508 105.479 37.8784 105.742C38.3771 106.291 38.7673 106.961 38.9732 107.718C39.6994 110.331 38.1928 113.064 35.5805 113.811C32.9791 114.557 30.2693 113.031 29.5431 110.408C29.3263 109.639 29.3046 108.871 29.4455 108.146C29.5106 107.795 29.4022 107.433 29.142 107.191C28.8819 106.95 28.5134 106.862 28.1774 106.961L18.3679 109.771L15.6147 99.9022C16.1567 99.8802 16.6986 99.7924 17.2406 99.6387C20.9151 98.5849 23.0721 94.7208 22.0315 90.9995C20.991 87.2782 17.1539 85.1376 13.4902 86.1914C12.9483 86.3451 12.4388 86.5646 11.9727 86.8281L10 79.7696L19.8095 76.9594C20.1455 76.8606 20.4165 76.5972 20.514 76.2459C20.6116 75.9056 20.514 75.5324 20.2864 75.2689C19.7878 74.72 19.4084 74.0504 19.1917 73.282C18.4654 70.6694 19.9721 67.936 22.5735 67.1895C25.1749 66.4431 27.8847 67.9689 28.6109 70.5815C28.8277 71.35 28.8494 72.1184 28.7085 72.8429C28.6434 73.1942 28.7518 73.5564 29.012 73.7979C29.2721 74.0394 29.6407 74.1272 29.9767 74.0284L39.7862 71.2182L42.1491 79.6928C42.2467 80.0331 42.5068 80.3075 42.8428 80.4063C43.1788 80.5051 43.5474 80.4063 43.8075 80.1758C44.3603 79.6708 45.0215 79.2866 45.7802 79.0671C48.36 78.3316 51.0264 79.8135 51.796 82.3603C51.796 82.3932 51.8068 82.4262 51.8177 82.4591C52.5439 85.0717 51.0373 87.8051 48.425 88.5515C47.6663 88.7711 46.8967 88.793 46.1704 88.6503C45.8236 88.5845 45.4659 88.7052 45.2274 88.9687C44.989 89.2321 44.9023 89.6054 44.9998 89.9457L45.0106 89.9566Z" stroke="#3BBDEF" stroke-width="1.87" stroke-linejoin="round"/>
<path d="M57.3359 52.0056C57.3359 55.3666 60.0203 58.0933 63.3157 58.0933C64.2759 58.0933 65.1925 57.8596 66 57.4478V69H54.6734C55.0772 68.1764 55.3063 67.2416 55.3063 66.2622C55.3063 62.9011 52.6329 60.1633 49.3266 60.1633C46.0203 60.1633 43.3578 62.9011 43.3578 66.2622C43.3578 67.2416 43.5869 68.1764 43.9906 69H32.6641V57.4478C31.8566 57.8596 30.94 58.0933 29.9797 58.0933C26.6843 58.0933 24 55.3666 24 52.0056C24 48.6445 26.6843 45.9067 29.9797 45.9067C30.94 45.9067 31.8566 46.1404 32.6641 46.5522V35H43.9906C43.5869 35.8236 43.3578 36.7584 43.3578 37.7378C43.3578 41.0989 46.0312 43.8367 49.3266 43.8367C52.622 43.8367 55.3063 41.0989 55.3063 37.7378C55.3063 36.7584 55.0772 35.8236 54.6625 35H65.9891V46.5522C65.1816 46.1404 64.265 45.9067 63.3048 45.9067C60.0094 45.9067 57.325 48.6334 57.325 52.0056H57.3359Z" fill="#171C8F"/>
<path d="M108 82.8592C108 86.1674 105.316 88.8404 102.019 88.8404C101.055 88.8404 100.146 88.6103 99.3349 88.205V101H88.0078C88.4131 100.189 88.6432 99.2801 88.6432 98.3161C88.6432 95.0188 85.9703 92.3349 82.662 92.3349C79.3537 92.3349 76.6917 95.0188 76.6917 98.3161C76.6917 99.2801 76.9217 100.189 77.3271 101H66V88.205C66.8106 88.6103 67.7199 88.8404 68.6839 88.8404C71.9812 88.8404 74.6651 86.1674 74.6651 82.8592C74.6651 79.5509 71.9812 76.8889 68.6839 76.8889C67.7199 76.8889 66.8106 77.1189 66 77.5243V67.6651H77.3271C76.9108 66.8545 76.6917 65.9452 76.6917 64.9812C76.6917 61.6839 79.3756 59 82.662 59C85.9484 59 88.6432 61.6839 88.6432 64.9812C88.6432 65.9452 88.4131 66.8545 88.0078 67.6651H99.3349V77.5243C100.146 77.1189 101.055 76.8889 102.019 76.8889C105.316 76.8889 108 79.5618 108 82.8592Z" fill="#171C8F"/>
</g>
<defs>
<clipPath id="clip0_311_931">
<rect width="120" height="120" fill="white" transform="translate(0 0.879395)"/>
</clipPath>
</defs>
</svg>
