<svg width="120" height="121" viewBox="0 0 120 121" fill="none" xmlns="http://www.w3.org/2000/svg">
<g clip-path="url(#clip0_311_877)">
<path d="M61.2 0.879395H0V60.8794H61.2V0.879395Z" fill="#F1F1F1"/>
<path d="M59 113H14.4229L6 49H50.5771L59 113Z" fill="white" stroke="#D9D9D9" stroke-width="1.52" stroke-miterlimit="10"/>
<path d="M108 113H59.2924L58.5 106C70.9972 106 95.4906 106.022 108 106.034V113Z" fill="white" stroke="#D9D9D9" stroke-width="1.52" stroke-miterlimit="10"/>
<path d="M86.064 24.564C93.816 19.524 111.276 9.948 112.98 9L75 16.08C78.06 18.216 83.004 22.428 86.064 24.564Z" stroke="#171C8F" stroke-width="1.52" stroke-linejoin="round"/>
<path d="M112.992 9.03601C108.648 18.228 104.316 27.42 99.972 36.6L86.5 24.5C95 19.5 106 13 112.992 9.03601Z" stroke="#171C8F" stroke-width="1.52" stroke-linejoin="round"/>
<path d="M85.644 24.552L84.912 34.068L91.848 29.7" stroke="#171C8F" stroke-width="1.52" stroke-linejoin="round"/>
<path d="M80.5 35.5C78.3537 37 76.1248 39.1696 75.5 42C74.18 47.9859 79.3887 49.108 78.3537 54.988C77.58 59.4243 76.5 66 70.5 67.5C67.5205 68.2448 60 68.5 60 60C60 56 61.5 51.5 67.5 51.5C73.5 51.5 76.6666 56.7698 77.8505 61.6791C79.2815 67.5913 75.5 82.4999 61.5 86.9999" stroke="#3BBDEF" stroke-width="2" stroke-linejoin="round" stroke-dasharray="4 4"/>
</g>
<defs>
<clipPath id="clip0_311_877">
<rect width="120" height="120" fill="white" transform="translate(0 0.879395)"/>
</clipPath>
</defs>
</svg>
