<svg width="120" height="121" viewBox="0 0 120 121" fill="none" xmlns="http://www.w3.org/2000/svg">
<g clip-path="url(#clip0_311_888)">
<path d="M61.2 0.879395H0V60.8794H61.2V0.879395Z" fill="#F1F1F1"/>
<path d="M114.636 34.6241H73.2V49.2521H102.228L108.624 60.1841V49.2521H114.636V34.6241Z" stroke="#3BBDEF" stroke-width="1.47"/>
<path d="M93.804 43.6122C94.824 43.6122 95.664 42.7842 95.664 41.7522C95.664 40.7202 94.836 39.8922 93.804 39.8922C92.772 39.8922 91.944 40.7202 91.944 41.7522C91.944 42.7842 92.772 43.6122 93.804 43.6122Z" fill="#3BBDEF" stroke="#3BBDEF" stroke-width="0.73"/>
<path d="M84.216 43.6122C85.236 43.6122 86.076 42.7842 86.076 41.7522C86.076 40.7202 85.248 39.8922 84.216 39.8922C83.184 39.8922 82.356 40.7202 82.356 41.7522C82.356 42.7842 83.184 43.6122 84.216 43.6122Z" fill="#3BBDEF" stroke="#3BBDEF" stroke-width="0.73"/>
<path d="M103.404 43.6122C104.424 43.6122 105.264 42.7842 105.264 41.7522C105.264 40.7202 104.436 39.8922 103.404 39.8922C102.372 39.8922 101.544 40.7202 101.544 41.7522C101.544 42.7842 102.372 43.6122 103.404 43.6122Z" fill="#3BBDEF" stroke="#3BBDEF" stroke-width="0.73"/>
<path d="M103.284 7.02417H50.4V22.6842H57.864C55.464 29.2242 53.064 35.7522 50.664 42.2802C55.536 35.7402 60.408 29.2122 65.292 22.6842H103.284V7.02417Z" stroke="#171C8F" stroke-width="1.47"/>
<path d="M62.16 16.6241C63.18 16.6241 64.02 15.7961 64.02 14.7641C64.02 13.7321 63.192 12.9041 62.16 12.9041C61.128 12.9041 60.3 13.7321 60.3 14.7641C60.3 15.7961 61.128 16.6241 62.16 16.6241Z" fill="#171C8F" stroke="#171C8F" stroke-width="0.73"/>
<path d="M71.844 16.6241C72.864 16.6241 73.704 15.7961 73.704 14.7641C73.704 13.7321 72.876 12.9041 71.844 12.9041C70.812 12.9041 69.984 13.7321 69.984 14.7641C69.984 15.7961 70.812 16.6241 71.844 16.6241Z" fill="#171C8F" stroke="#171C8F" stroke-width="0.73"/>
<path d="M81.54 16.6241C82.56 16.6241 83.4 15.7961 83.4 14.7641C83.4 13.7321 82.572 12.9041 81.54 12.9041C80.508 12.9041 79.68 13.7321 79.68 14.7641C79.68 15.7961 80.508 16.6241 81.54 16.6241Z" fill="#171C8F" stroke="#171C8F" stroke-width="0.73"/>
<path d="M91.236 16.6241C92.256 16.6241 93.096 15.7961 93.096 14.7641C93.096 13.7321 92.268 12.9041 91.236 12.9041C90.204 12.9041 89.376 13.7321 89.376 14.7641C89.376 15.7961 90.204 16.6241 91.236 16.6241Z" fill="#171C8F" stroke="#171C8F" stroke-width="0.73"/>
<path d="M98.4 59.8241H57.492V75.1121H61.284C59.256 78.8321 57.228 82.5521 55.2 86.2721C59.82 82.5521 64.428 78.8321 69.036 75.1121H98.4V59.8241Z" stroke="#171C8F" stroke-width="1.47"/>
<path d="M68.028 69.088C69.048 69.088 69.888 68.26 69.888 67.228C69.888 66.196 69.06 65.368 68.028 65.368C66.996 65.368 66.168 66.196 66.168 67.228C66.168 68.26 66.996 69.088 68.028 69.088Z" fill="#171C8F" stroke="#171C8F" stroke-width="0.73"/>
<path d="M77.7121 69.088C78.7321 69.088 79.5721 68.26 79.5721 67.228C79.5721 66.196 78.7441 65.368 77.7121 65.368C76.6801 65.368 75.8521 66.196 75.8521 67.228C75.8521 68.26 76.6801 69.088 77.7121 69.088Z" fill="#171C8F" stroke="#171C8F" stroke-width="0.73"/>
<path d="M87.408 69.088C88.428 69.088 89.268 68.26 89.268 67.228C89.268 66.196 88.44 65.368 87.408 65.368C86.376 65.368 85.548 66.196 85.548 67.228C85.548 68.26 86.376 69.088 87.408 69.088Z" fill="#171C8F" stroke="#171C8F" stroke-width="0.73"/>
<path d="M55.6 111.439H13.307L1.60001 42H43.893L55.6 111.427V111.439Z" fill="white" stroke="#D9D9D9" stroke-width="1.68" stroke-miterlimit="10"/>
<path d="M49.6764 105.223H17.2815L7.89301 47.363H40.2879L49.6764 105.223Z" fill="white" stroke="#D9D9D9" stroke-width="1.68" stroke-miterlimit="10"/>
<path d="M21.8165 66.1146C20.3006 67.2866 20.772 69.6306 20.8357 70.0509C21.0267 71.2611 21.6127 72.4458 26.4153 77.2229C31.2688 82.0509 32.5172 82.6751 33.7146 82.7134C34.2624 82.7261 35.7911 82.6751 37.0777 81.7707C37.4981 81.4777 37.7146 81.3248 37.8165 81.0318C38.4407 79.2866 34.2497 75.4522 32.7847 75.8981C32.6446 75.9363 32.1605 76.1401 32.0204 76.586C31.8802 77.0318 32.1732 77.4267 31.9439 77.7452C31.7656 77.9745 31.4216 78 31.2815 78.0127C30.479 78.0509 29.6892 77.1847 27.4726 74.8917C26.2497 73.6178 25.1159 72.4586 25.2943 71.7452C25.3579 71.5159 25.4853 71.3758 25.4853 71.3758C25.8038 71.0318 26.3006 71.2229 26.7847 71.0064C26.7847 71.0064 27.2306 70.8153 27.4344 70.3185C27.9822 69.0318 24.963 65.3885 22.8357 65.6051C22.3771 65.656 22.0713 65.8726 21.8675 66.0382L21.8038 66.1274L21.8165 66.1146Z" fill="#171C8F" stroke="#171C8F" stroke-width="1.68" stroke-miterlimit="10"/>
</g>
<defs>
<clipPath id="clip0_311_888">
<rect width="120" height="120" fill="white" transform="translate(0 0.879395)"/>
</clipPath>
</defs>
</svg>
